<?xml version="1.0" encoding="UTF-8"?> <svg xmlns="http://www.w3.org/2000/svg" xmlns:xlink="http://www.w3.org/1999/xlink" version="1.1" id="Layer_1" x="0px" y="0px" viewBox="0 0 296.59 78.04" style="enable-background:new 0 0 296.59 78.04;" xml:space="preserve"> <style type="text/css"> .st0{fill:#005B8B;} .st1{fill:#F04E23;} .st2{fill:none;} </style> <path class="st1" d="M62.38,41.51c0.72,0.57,1.86,0.86,3.38,0.86c0.89,0,1.66-0.11,2.29-0.32c0.63-0.22,1.16-0.5,1.57-0.84 c0.4-0.34,0.71-0.73,0.9-1.17c0.19-0.45,0.28-0.9,0.28-1.36c0-0.5-0.11-0.94-0.34-1.3c-0.23-0.36-0.54-0.66-0.93-0.88 c-0.4-0.22-0.87-0.4-1.4-0.51c-0.53-0.11-1.12-0.17-1.73-0.17c-0.97,0-1.8,0.13-2.44,0.37c-0.66,0.24-1.18,0.54-1.56,0.89 c-0.38,0.35-0.67,0.72-0.84,1.12c-0.16,0.4-0.25,0.76-0.25,1.06C61.31,40.2,61.66,40.94,62.38,41.51z"></path> <path class="st1" d="M125.87,68.8c-0.65,0.32-1.37,0.66-2.11,0.98c-0.7,0.31-1.43,0.58-2.15,0.81c-0.72,0.22-1.37,0.34-1.96,0.34 c-0.54,0-0.9-0.14-1.08-0.41c-0.18-0.26-0.26-0.59-0.26-1.02c0-0.42,0.08-0.9,0.24-1.42c0.16-0.52,0.37-1.05,0.6-1.58 c0.24-0.53,0.5-1.08,0.77-1.62c0.14-0.26,0.26-0.5,0.38-0.74l0.14-0.28l0.21-0.08c0.08-0.03,0.15-0.06,0.23-0.09 c0.8-0.33,1.55-0.67,2.23-1.02c0.67-0.35,1.32-0.7,1.91-1.06c0.23-0.14,0.3-0.34,0.23-0.6c-0.22-0.77-1.69-1.84-2.84-1.84 c-0.22,0-0.41,0.04-0.57,0.12c-0.65,0.34-1.3,0.63-1.94,0.9c-0.62,0.26-1.22,0.48-1.79,0.64c-1.09,0.31-1.92,0.32-2.34,0.01 c-0.2-0.15-0.35-0.36-0.45-0.63c-0.09-0.25-0.15-0.55-0.17-0.91c-0.02-0.34-0.03-0.7-0.03-1.11c0-0.22,0.05-0.6,0.16-1.16 c0.11-0.53,0.24-1.16,0.41-1.91c0.12-0.5,0.24-1.02,0.37-1.57l0.18-0.77c0.2-0.84,0.38-1.65,0.55-2.44 c0.17-0.81,0.31-1.52,0.41-2.17c0.1-0.65,0.16-1.17,0.16-1.55c0-0.35-0.24-0.63-0.73-0.87c-0.51-0.24-1.22-0.37-2.11-0.37 c-0.79,0-1.47,0.11-2.1,0.35c-0.59,0.22-0.92,0.48-1,0.78l-2.64,10.83c-0.15,0.59-0.37,1.11-0.65,1.56 c-0.29,0.45-0.62,0.84-0.99,1.15c-0.36,0.31-0.77,0.55-1.19,0.72c-0.43,0.17-0.84,0.25-1.24,0.25c-0.29,0-0.54-0.06-0.75-0.19 c-0.21-0.12-0.38-0.28-0.52-0.49c-0.13-0.19-0.23-0.41-0.3-0.66c-0.06-0.25-0.1-0.51-0.1-0.77c0-0.02,0-0.03,0.09-0.49l0.03-0.19 c0.08-0.43,0.19-0.99,0.33-1.69c0.1-0.48,0.2-1.01,0.32-1.58l0.16-0.8c0.18-0.89,0.36-1.8,0.57-2.74l0.16-0.8 c0.14-0.67,0.28-1.33,0.4-2c0.12-0.55,0.23-1.08,0.33-1.57l0.2-0.95c0-0.16-0.19-0.33-0.54-0.47c-0.38-0.16-1.05-0.25-1.98-0.28 c-0.54,0.01-1.04,0.13-1.48,0.35c-0.43,0.22-0.81,0.51-1.15,0.85c-0.32,0.34-0.61,0.73-0.86,1.17c-0.25,0.44-0.46,0.87-0.62,1.29 c-0.17,0.43-0.3,0.82-0.39,1.17c-0.1,0.35-0.17,0.64-0.2,0.86c-0.48,2.16-0.88,4.1-1.2,5.75l-0.01,0.04l-0.16,0.15 c-0.37,0.36-0.76,0.75-1.18,1.14c-0.42,0.41-0.86,0.8-1.31,1.18c-0.43,0.36-0.88,0.72-1.35,1.05c-0.45,0.32-0.89,0.58-1.31,0.77 c-0.42,0.19-0.83,0.3-1.21,0.3c-0.67,0-1.19-0.12-1.52-0.35c-0.34-0.24-0.51-0.65-0.51-1.2c0-0.62,0.18-1.24,0.55-1.85 c0.36-0.6,0.81-1.21,1.35-1.82c0.53-0.59,1.11-1.2,1.73-1.81c0.6-0.57,1.18-1.17,1.73-1.78c0.52-0.58,0.96-1.17,1.32-1.76 c0.34-0.57,0.52-1.14,0.52-1.69c0-0.58-0.09-1.1-0.29-1.58c-0.2-0.48-0.45-0.87-0.77-1.2c-0.32-0.32-0.7-0.58-1.15-0.76 c-0.43-0.18-0.89-0.27-1.37-0.27c-0.96,0-1.85,0.11-2.63,0.32c-0.79,0.22-1.47,0.49-2,0.79c-0.34,0.19-0.82,0.57-1.43,1.11 c-0.61,0.55-1.28,1.19-2.02,1.9c-0.79,0.77-1.53,1.5-2.24,2.23c-0.77,0.78-1.47,1.5-2.1,2.16l-0.06,0.07l-0.86-0.43l3.23-3.87 c0.02-0.02,0.03-0.04,0.05-0.07c0.1-0.15,0.4-0.58,0.94-1.39c0.49-0.72,1.05-1.63,1.69-2.7c0.63-1.04,1.3-2.24,2-3.57 c0.69-1.32,1.33-2.68,1.91-4.07c0.58-1.4,1.07-2.8,1.44-4.17c0.38-1.37,0.57-2.67,0.57-3.87c0-0.67-0.07-1.29-0.21-1.87 c-0.14-0.56-0.38-1.05-0.71-1.46c-0.33-0.4-0.78-0.72-1.35-0.94c-0.57-0.23-1.31-0.34-2.19-0.34c-1.13,0-2.19,0.19-3.15,0.57 c-0.96,0.38-1.86,0.9-2.66,1.55c-0.8,0.65-1.54,1.42-2.19,2.29c-0.65,0.87-1.24,1.8-1.77,2.77c-0.51,0.95-0.97,1.96-1.37,2.99 c-0.39,1.01-0.74,2-1.03,2.96c-0.3,0.96-0.54,1.86-0.73,2.67c-0.19,0.82-0.35,1.53-0.48,2.12c-0.33,1.62-0.62,3.33-0.86,5.09 c-0.25,1.78-0.44,3.47-0.57,5.01c-0.14,1.57-0.25,3.05-0.32,4.4c-0.01,0.24-0.02,0.46-0.04,0.68v0.06l-0.05,0.03 c-0.75,0.53-1.52,1.04-2.29,1.53c-0.81,0.51-1.61,0.94-2.38,1.3c-0.79,0.36-1.52,0.54-2.18,0.54c-0.6,0-1.01-0.21-1.2-0.64 c-0.18-0.39-0.28-0.91-0.28-1.58c0-0.66,0.09-1.42,0.26-2.23c0.19-0.85,0.41-1.7,0.68-2.53c0.31-1.01,0.58-1.83,0.85-2.58 c0.3-0.86,0.58-1.67,0.86-2.41c0.26-0.75,0.48-1.42,0.66-2c0.18-0.59,0.26-1.03,0.26-1.32c0-0.33-0.12-0.59-0.36-0.79 c-0.24-0.2-0.72-0.3-1.44-0.3c-0.4,0-0.86,0.04-1.35,0.12c-0.5,0.07-0.99,0.2-1.44,0.36c-0.46,0.17-0.88,0.37-1.23,0.63 c-0.35,0.25-0.58,0.54-0.7,0.89c-0.33,1.09-0.7,2.27-1.1,3.5c-0.4,1.21-0.79,2.45-1.19,3.8c-0.33,1.12-0.62,2.26-0.87,3.38 l-0.01,0.04l-0.03,0.03c-0.05,0.05-0.1,0.1-0.15,0.15c-0.08,0.07-0.15,0.14-0.23,0.21c-0.37,0.33-0.77,0.65-1.19,0.95 c-0.42,0.31-0.85,0.59-1.26,0.83c-0.41,0.24-0.83,0.44-1.26,0.59c-0.41,0.15-0.82,0.23-1.22,0.23c-0.54,0-0.9-0.22-1.08-0.64 c-0.16-0.38-0.23-0.91-0.23-1.61c0-0.8,0.09-1.64,0.26-2.51c0.18-0.88,0.38-1.77,0.59-2.62c0.21-0.89,0.41-1.75,0.58-2.56 c0.18-0.81,0.27-1.57,0.27-2.24c0-0.42-0.04-0.76-0.14-1c-0.09-0.24-0.22-0.42-0.38-0.54c-0.16-0.13-0.35-0.21-0.56-0.25 c-0.39-0.07-0.85-0.07-1.32-0.05c-0.44,0.02-0.88,0.02-1.29-0.02c-0.23-0.02-0.46-0.07-0.68-0.15c-0.23-0.08-0.43-0.2-0.58-0.37 l-0.44-0.48c-0.14-0.15-0.32-0.29-0.54-0.41c-0.22-0.12-0.51-0.18-0.9-0.18c-1.2,0-2.41,0.21-3.57,0.62 c-1.17,0.42-2.29,0.98-3.34,1.68c-1.06,0.7-2.04,1.54-2.92,2.48c-0.88,0.94-1.66,1.95-2.31,3.02c-0.65,1.04-1.17,2.14-1.54,3.27 c-0.25,0.74-0.41,1.5-0.49,2.25l-0.01,0.08l-0.07,0.03c-0.06,0.02-0.12,0.05-0.18,0.07c-0.14,0.05-0.27,0.11-0.41,0.14 c-0.36,0.1-0.68,0.15-0.98,0.15c-1.19,0-2.24-0.12-3.11-0.36c-0.87-0.24-1.6-0.56-2.16-0.96c-0.57-0.41-1-0.88-1.27-1.41 c-0.28-0.53-0.41-1.08-0.41-1.63c0-0.36,0.06-0.73,0.16-1.1c0.11-0.37,0.27-0.72,0.49-1.05c0.73-1.08,1.53-2.26,2.35-3.51 c0.78-1.17,1.58-2.4,2.45-3.76c0.76-1.19,1.52-2.4,2.33-3.73c0.73-1.19,1.38-2.34,1.95-3.43c0.55-1.04,1.01-2,1.34-2.86 c0.33-0.83,0.5-1.5,0.5-2c0-0.69-0.17-1.26-0.52-1.68c-0.34-0.42-0.81-0.63-1.41-0.63c-0.54,0-1.06,0.07-1.56,0.2 c-0.51,0.14-0.96,0.31-1.39,0.55c-0.41,0.22-0.77,0.49-1.07,0.8c-0.29,0.3-0.49,0.62-0.61,0.94L9.56,60.54l-0.02-0.37L8.37,34.82 c0-0.5-0.04-0.94-0.13-1.32C8.16,33.12,8,32.8,7.77,32.54c-0.23-0.26-0.54-0.46-0.93-0.59c-0.4-0.14-0.93-0.21-1.57-0.21 c-0.31,0-0.68,0.02-1.11,0.05c-0.4,0.03-0.8,0.16-1.17,0.37c-0.38,0.21-0.69,0.54-0.95,0.99c-0.27,0.45-0.4,1.1-0.4,1.94 c0,0.6,0.02,1.34,0.06,2.2c0.05,0.96,0.11,1.94,0.18,2.92c0.06,1.01,0.14,2.1,0.25,3.32l0.03,0.41c0.09,1.02,0.17,2.02,0.26,3 c0.1,1.12,0.19,2.18,0.3,3.2c0.1,1.02,0.18,1.91,0.25,2.7c0.07,0.78,0.14,1.4,0.18,1.87c0.05,0.44,0.08,0.72,0.08,0.76 c0.11,0.92,0.18,1.84,0.21,2.7c0.04,0.89,0.1,1.75,0.18,2.55c0.08,0.79,0.21,1.55,0.4,2.24c0.18,0.68,0.46,1.27,0.85,1.76 c0.39,0.48,0.91,0.87,1.57,1.14c0.65,0.28,1.52,0.42,2.56,0.42c0.76,0,1.54-0.17,2.33-0.49c0.78-0.33,1.6-0.88,2.44-1.66 c0.84-0.77,1.72-1.83,2.62-3.13c0.91-1.3,1.9-2.95,2.94-4.9l0.22,0.08c-0.11,0.5-0.16,0.95-0.16,1.36c0,0.81,0.17,1.56,0.5,2.23 c0.32,0.66,0.81,1.23,1.45,1.7c0.64,0.47,1.42,0.84,2.34,1.1c0.92,0.26,1.98,0.39,3.17,0.39c1.26,0,2.63-0.28,4.07-0.83l0.18-0.07 l0.06,0.13c0.37,0.73,0.85,1.36,1.46,1.86c0.61,0.51,1.32,0.9,2.11,1.17c0.79,0.27,1.62,0.41,2.45,0.41c0.79,0,1.56-0.1,2.36-0.32 c0.79-0.21,1.54-0.47,2.28-0.81c0.72-0.33,1.4-0.7,2.02-1.11c0.62-0.41,1.15-0.82,1.56-1.2l0.12-0.11l0.07,0.15 c0.55,1.13,1.22,1.99,1.99,2.59c0.75,0.59,1.71,0.88,2.85,0.88c0.96,0,1.93-0.19,2.88-0.57c0.96-0.37,1.87-0.84,2.72-1.39 c0.08-0.05,0.15-0.1,0.22-0.15c0.05-0.04,0.1-0.08,0.15-0.11l0.12-0.08l0.06,0.13c0.19,0.39,0.39,0.7,0.64,0.93 c0.38,0.36,0.87,0.64,1.49,0.84c0.62,0.2,1.38,0.3,2.29,0.3c1.01,0,2.1-0.15,3.23-0.44c1.14-0.3,2.26-0.67,3.35-1.11 c1.1-0.45,2.13-0.94,3.06-1.47l0.47-0.27l0.02,0.28c0,0.04,0,0.07,0.01,0.11c0.06,0.57,0.2,1.08,0.43,1.51 c0.21,0.42,0.53,0.76,0.96,1.02c0.42,0.25,1.01,0.38,1.75,0.38c0.55,0,1.03-0.1,1.45-0.32c0.41-0.21,0.82-0.6,1.22-1.15l7.83-11 c0.57-0.79,1.11-1.36,1.6-1.67c0.94-0.61,1.57-0.63,1.91-0.16c0.15,0.21,0.22,0.46,0.22,0.8c0,0.18-0.07,0.36-0.18,0.52 c-0.11,0.14-0.26,0.3-0.47,0.48c-0.2,0.17-0.43,0.35-0.7,0.56c-0.24,0.19-0.51,0.4-0.8,0.63c-0.05,0.04-0.09,0.08-0.13,0.12 c-0.75,0.78-1.38,1.53-1.86,2.22c-0.49,0.72-0.88,1.37-1.14,1.95c-0.28,0.6-0.45,1.12-0.55,1.58c-0.1,0.47-0.15,0.86-0.15,1.18 c0,0.54,0.08,1.07,0.25,1.57c0.16,0.49,0.46,0.95,0.91,1.34c0.44,0.4,1.07,0.72,1.86,0.97c0.79,0.24,1.83,0.37,3.09,0.37 c0.96,0,1.98-0.11,3.03-0.34c1.04-0.23,2.07-0.55,3.04-0.95c0.71-0.3,1.43-0.66,2.19-1.11l0.13-0.07l0.05,0.13 c0.23,0.59,0.52,1.04,0.9,1.38c0.38,0.36,0.83,0.61,1.32,0.76c0.51,0.15,1.03,0.23,1.62,0.23c0.69,0,1.42-0.12,2.16-0.35 c0.74-0.23,1.49-0.56,2.21-0.96c0.73-0.41,1.46-0.9,2.15-1.45c0.69-0.55,1.38-1.17,2.01-1.83l0.15-0.15l0.06,0.21 c0.17,0.63,0.38,1.23,0.61,1.76c0.24,0.52,0.53,0.97,0.86,1.34c0.34,0.37,0.73,0.66,1.19,0.86c0.43,0.19,0.96,0.29,1.6,0.3l0.18,0 l-0.07,0.17c-0.05,0.13-0.11,0.25-0.17,0.38c-0.09,0.19-0.18,0.38-0.26,0.57c-0.32,0.77-0.61,1.55-0.85,2.29 c-0.23,0.72-0.34,1.37-0.34,1.92c0,0.37,0.07,0.73,0.22,1.05c0.15,0.32,0.38,0.58,0.72,0.79c0.32,0.22,0.77,0.4,1.34,0.53 c0.56,0.12,1.25,0.19,2.07,0.19c0.92,0,1.91-0.09,2.92-0.28c1.01-0.18,2.03-0.42,3.03-0.69c1.01-0.29,1.94-0.6,2.76-0.92 c0.44-0.17,0.85-0.34,1.22-0.5c0.52-0.23,0.84-0.74,0.84-1.32c0-0.03,0-0.05,0-0.08c0-0.04,0-0.09,0-0.13c0-0.06,0-0.11,0-0.17 c0-0.07,0-0.13,0-0.2c0-0.07,0-0.14,0-0.21c0-0.07,0-0.14,0-0.21c0-0.06,0-0.13,0-0.19c0-0.03,0-0.06,0-0.08c0-0.01,0-0.03,0-0.05 c0-0.04,0-0.04,0-0.06c0-0.04-0.01-0.06-0.03-0.07c-0.02-0.02-0.05-0.02-0.08-0.01c-0.02,0-0.03,0.01-0.05,0.02 c-0.03,0.01-0.06,0.03-0.09,0.04c-0.06,0.03-0.12,0.06-0.18,0.09C126.68,68.41,126.28,68.6,125.87,68.8z M45.71,49.36l-1.63,6.27 c-0.07,0.45-0.22,1.01-0.47,1.72c-0.24,0.69-0.56,1.37-0.96,2c-0.41,0.66-0.87,1.21-1.41,1.67c-0.55,0.47-1.18,0.71-1.86,0.71 c-0.43,0-0.79-0.09-1.08-0.26c-0.28-0.17-0.51-0.4-0.68-0.68c-0.17-0.27-0.28-0.59-0.35-0.94c-0.06-0.32-0.09-0.67-0.09-1.06 c0-0.65,0.1-1.33,0.31-2.04c0.2-0.72,0.5-1.44,0.87-2.15c0.38-0.71,0.83-1.39,1.34-2.03c0.51-0.64,1.08-1.22,1.71-1.73 c0.62-0.5,1.28-0.91,1.98-1.2c0.7-0.3,1.43-0.45,2.18-0.45h0.16L45.71,49.36z M77.14,51.15l-0.23-0.06 c0.16-1.73,0.38-3.47,0.65-5.17c0.1-0.73,0.23-1.53,0.38-2.37c0.15-0.85,0.33-1.71,0.52-2.56c0.38-1.72,0.89-3.56,1.7-5.91 c0.21-0.62,0.49-1.23,0.77-1.82c0.19-0.41,0.52-1.24,1.07-1.91c0.49-0.6,1.23-1.04,1.43-1.18c0.42-0.3,2.21-0.31,2.21,0.36 c0,0.33-0.08,0.75-0.22,1.23c-0.14,0.47-0.33,0.98-0.55,1.52c-0.23,0.54-0.47,1.1-0.73,1.69c-0.25,0.52-0.52,1.12-0.81,1.69 c-0.26,0.54-0.51,1.04-0.74,1.51c-0.24,0.49-0.41,0.87-0.53,1.16c-0.27,0.67-0.6,1.48-1,2.44c-0.31,0.75-0.64,1.53-0.98,2.34 l-0.29,0.7c-0.18,0.44-0.37,0.88-0.56,1.32c-0.27,0.64-0.54,1.29-0.81,1.94L77.14,51.15z"></path> <path class="st0" d="M182.34,41.62c0.74,0.59,1.9,0.88,3.46,0.88c0.91,0,1.68-0.11,2.33-0.33c0.64-0.22,1.19-0.51,1.61-0.86 c0.43-0.36,0.73-0.76,0.93-1.21c0.2-0.46,0.3-0.92,0.3-1.41c0-0.53-0.12-0.98-0.36-1.36c-0.24-0.39-0.56-0.69-0.97-0.93 c-0.41-0.24-0.88-0.41-1.44-0.52c-0.55-0.11-1.13-0.17-1.75-0.17c-1,0-1.82,0.13-2.49,0.38c-0.66,0.25-1.2,0.55-1.6,0.92 c-0.4,0.36-0.68,0.75-0.86,1.16c-0.17,0.41-0.27,0.79-0.27,1.11C181.23,40.25,181.6,41.03,182.34,41.62z"></path> <path class="st0" d="M221.31,41.62c0.74,0.59,1.9,0.88,3.46,0.88c0.9,0,1.69-0.11,2.33-0.33c0.65-0.22,1.19-0.51,1.61-0.86 c0.43-0.36,0.73-0.76,0.93-1.21c0.19-0.46,0.3-0.92,0.3-1.41c0-0.53-0.13-0.98-0.37-1.36c-0.23-0.39-0.56-0.69-0.97-0.93 c-0.41-0.24-0.89-0.41-1.44-0.52c-0.54-0.11-1.13-0.17-1.75-0.17c-1,0-1.82,0.13-2.49,0.38c-0.67,0.25-1.2,0.55-1.6,0.92 c-0.4,0.36-0.69,0.75-0.87,1.16c-0.18,0.41-0.26,0.79-0.26,1.11C220.19,40.25,220.56,41.03,221.31,41.62z"></path> <path class="st0" d="M240.02,42.36c0.9,0.05,1.69-0.01,2.34-0.2c0.66-0.19,1.22-0.44,1.66-0.78c0.45-0.33,0.78-0.72,1-1.16 c0.22-0.44,0.35-0.9,0.38-1.39c0.03-0.53-0.07-0.99-0.28-1.38c-0.21-0.4-0.52-0.73-0.92-0.97c-0.4-0.26-0.86-0.46-1.41-0.6 c-0.55-0.14-1.12-0.23-1.74-0.26c-0.99-0.05-1.83,0.02-2.5,0.24c-0.69,0.21-1.23,0.49-1.65,0.83c-0.42,0.34-0.73,0.71-0.94,1.11 c-0.2,0.4-0.31,0.77-0.33,1.09c-0.06,0.98,0.27,1.78,0.98,2.41C237.32,41.92,238.46,42.27,240.02,42.36z"></path> <path class="st0" d="M285.41,45.23l-9.77,10.47l-1.52,1.56c-0.37,0.36-0.74,0.71-1.11,1.04c-0.37,0.33-0.77,0.65-1.18,0.95 c-0.42,0.3-0.84,0.58-1.26,0.82c-0.41,0.24-0.83,0.44-1.24,0.59c-0.41,0.15-0.8,0.22-1.17,0.22c-0.49,0-0.82-0.19-0.97-0.56 s-0.22-0.9-0.22-1.57c0-0.78,0.08-1.61,0.26-2.48c0.18-0.88,0.38-1.75,0.59-2.62c0.21-0.87,0.41-1.73,0.59-2.56 c0.17-0.83,0.27-1.59,0.27-2.27c0-0.44-0.05-0.79-0.15-1.04c-0.1-0.26-0.24-0.46-0.41-0.6c-0.18-0.14-0.38-0.23-0.62-0.28 c-0.23-0.04-0.48-0.06-0.74-0.06c-0.2,0-0.4,0-0.6,0.01c-0.21,0.01-0.4,0.01-0.59,0.01c-0.24,0-0.46-0.01-0.68-0.03 c-0.22-0.02-0.44-0.06-0.65-0.14c-0.22-0.07-0.39-0.19-0.54-0.34c-0.14-0.16-0.29-0.31-0.44-0.48c-0.15-0.17-0.34-0.31-0.57-0.44 c-0.23-0.13-0.55-0.19-0.95-0.19c-1.23,0-2.43,0.21-3.61,0.63c-1.18,0.42-2.31,0.98-3.37,1.69c-1.06,0.71-2.04,1.54-2.94,2.5 c-0.9,0.95-1.67,1.96-2.33,3.04c-0.65,1.07-1.17,2.17-1.54,3.29c-0.33,0.98-0.5,1.93-0.54,2.86c-0.03,0.02-0.05,0.05-0.09,0.07 c-0.72,0.52-1.43,0.97-2.14,1.34c-0.7,0.36-1.34,0.55-1.93,0.55c-0.5,0-0.82-0.2-0.98-0.58c-0.12-0.3-0.17-0.72-0.19-1.18 c0.03-0.23,0.08-0.47,0.11-0.7c0.16-1.06,0.32-2.12,0.43-3.17c0.14-1.06,0.22-2.05,0.29-3c0.07-0.94,0.08-1.79,0.07-2.54 c-0.02-0.75-0.1-1.35-0.22-1.81c-0.11-0.39-0.29-0.73-0.54-1.02c-0.25-0.29-0.55-0.54-0.89-0.76c-0.35-0.21-0.72-0.4-1.12-0.57 c-0.4-0.17-0.8-0.32-1.19-0.47c-0.58-0.21-1.05-0.22-1.42-0.04c-0.37,0.18-0.61,0.43-0.73,0.74c-0.06,0.16-0.12,0.43-0.16,0.81 c-0.04,0.38-0.07,0.79-0.1,1.24c-0.02,0.45-0.03,0.88-0.04,1.29c0,0.41-0.01,0.71-0.01,0.91l0.15,3.7c-0.88-0.46-1.74-0.86-2.6-1.22 c-0.84-0.36-4.4,4.34-5.08,5.16c-0.49,0.57-0.98,1.23-1.48,1.93c-0.74,0.46-1.47,0.86-2.19,1.18c-0.78,0.36-1.49,0.53-2.13,0.53 c-0.55,0-0.91-0.19-1.09-0.57c-0.17-0.38-0.26-0.88-0.26-1.52c0-0.66,0.09-1.39,0.26-2.2c0.18-0.82,0.4-1.66,0.66-2.52 c0.27-0.86,0.55-1.72,0.85-2.58c0.3-0.86,0.58-1.67,0.86-2.41c0.26-0.75,0.49-1.41,0.67-2c0.18-0.59,0.27-1.04,0.27-1.36 c0-0.37-0.13-0.66-0.4-0.88c-0.27-0.22-0.77-0.33-1.52-0.33c-0.4,0-0.86,0.04-1.37,0.12c-0.51,0.08-0.99,0.2-1.46,0.36 c-0.47,0.17-0.89,0.38-1.26,0.64c-0.37,0.26-0.62,0.58-0.75,0.95c-0.32,1.07-0.68,2.23-1.1,3.49c-0.42,1.27-0.81,2.54-1.19,3.81 c-0.37,1.27-0.69,2.5-0.95,3.69c-0.02,0.13-0.03,0.23-0.06,0.36c-0.02,0.01-0.04,0.02-0.05,0.04c-0.41,0.28-0.82,0.56-1.24,0.83 c-0.42,0.27-0.82,0.51-1.23,0.71c-0.4,0.21-0.77,0.37-1.11,0.5c-0.35,0.13-0.66,0.19-0.92,0.19c-0.59,0-1.01-0.28-1.29-0.85 c-0.28-0.57-0.42-1.29-0.42-2.17c0-0.53,0.04-1.1,0.12-1.72c0.08-0.63,0.18-1.26,0.31-1.9c0.12-0.64,0.26-1.26,0.41-1.88 c0.15-0.61,0.29-1.17,0.41-1.68c0.12-0.51,0.23-0.95,0.3-1.32c0.08-0.37,0.12-0.63,0.12-0.79c0-1.05-0.27-1.88-0.79-2.48 c-0.52-0.6-1.23-0.89-2.12-0.89c-0.88,0-1.69,0.14-2.42,0.43c-0.72,0.28-1.37,0.81-1.94,1.58c-0.12,0.17-0.31,0.43-0.56,0.79 c-0.24,0.35-0.52,0.76-0.83,1.22c-0.3,0.46-0.62,0.94-0.97,1.45c-0.34,0.51-0.67,0.98-0.97,1.44c-0.3,0.45-0.57,0.85-0.8,1.2 c-0.23,0.35-0.4,0.6-0.5,0.76h-0.53c0-0.1,0.02-0.29,0.08-0.59c0.04-0.29,0.12-0.63,0.2-1.02c0.08-0.39,0.16-0.82,0.25-1.28 c0.09-0.46,0.18-0.91,0.25-1.34c0.08-0.43,0.15-0.83,0.2-1.19c0.05-0.36,0.08-0.65,0.08-0.86c0-0.78-0.19-1.41-0.56-1.88 c-0.38-0.47-1.03-0.7-1.99-0.7c-0.96,0-1.72,0.22-2.28,0.66c-0.56,0.44-0.93,0.99-1.13,1.64c-0.25,0.84-0.5,1.85-0.77,3.03 c-0.27,1.18-0.51,2.41-0.71,3.68c-0.22,1.27-0.39,2.51-0.53,3.74c-0.12,0.08-0.23,0.16-0.35,0.24c-0.77,0.54-1.55,1.06-2.35,1.57 c-0.79,0.5-1.58,0.93-2.37,1.29c-0.78,0.36-1.49,0.53-2.13,0.53c-0.55,0-0.91-0.19-1.09-0.57c-0.18-0.38-0.27-0.88-0.27-1.52 c0-0.66,0.09-1.39,0.27-2.2c0.17-0.82,0.4-1.66,0.66-2.52c0.27-0.86,0.55-1.72,0.85-2.58c0.3-0.86,0.59-1.67,0.85-2.41 c0.27-0.75,0.5-1.41,0.67-2c0.17-0.59,0.26-1.04,0.26-1.36c0-0.37-0.12-0.66-0.39-0.88c-0.27-0.22-0.77-0.33-1.52-0.33 c-0.41,0-0.87,0.04-1.37,0.12c-0.5,0.08-0.99,0.2-1.46,0.36c-0.47,0.17-0.89,0.38-1.27,0.64c-0.37,0.26-0.62,0.58-0.74,0.95 c-0.33,1.07-0.69,2.23-1.11,3.49c-0.42,1.27-0.81,2.54-1.18,3.81c-0.21,0.72-0.4,1.42-0.57,2.11c-0.11-0.01-0.23-0.02-0.36-0.01 c-0.1,0.01-0.21,0.02-0.31,0.05c-0.11,0.02-0.23,0.05-0.34,0.08l-6.99,2.52c-1.05,0.39-1.9,0.6-2.54,0.65 c-0.43,0.03-0.77,0.03-1.03,0.02c-0.25-0.02-0.46-0.06-0.62-0.11c-0.15-0.05-0.25-0.13-0.31-0.24c-0.05-0.1-0.09-0.21-0.1-0.34 c0-0.06-0.01-0.14-0.01-0.23c-0.01-0.1-0.01-0.28-0.03-0.55c-0.01-0.26-0.02-0.65-0.03-1.15c-0.01-0.51-0.03-1.19-0.07-2.06 c1.49-1.06,2.9-2.24,4.26-3.55c1.36-1.31,2.61-2.69,3.76-4.14c1.15-1.44,2.19-2.93,3.11-4.47c0.92-1.54,1.7-3.07,2.33-4.59 c0.63-1.52,1.1-3.02,1.4-4.49c0.3-1.47,0.4-2.87,0.32-4.19c-0.07-1.08-0.26-2.01-0.55-2.8c-0.3-0.79-0.68-1.44-1.13-1.95 c-0.47-0.51-1-0.88-1.62-1.11c-0.61-0.23-1.28-0.31-1.98-0.27c-0.98,0.07-2.01,0.39-3.11,0.97c-1.09,0.58-2.18,1.42-3.27,2.51 c-1.09,1.09-2.13,2.43-3.14,4c-1.02,1.58-1.92,3.41-2.74,5.48c-0.8,2.07-1.47,4.37-2,6.9c-0.53,2.54-0.84,5.3-0.95,8.3 c0,0,0,0.3,0.01,0.79c-1.64,0.39-4.55,1.08-5.35,1.16c-3.06,0.34-10.65,1.02-15.83-5.12c-0.61-0.72-1.3-1.47-1.91-2.78h-4.81 c0.81,3.01,5.07,8.23,8.96,10.25c2.98,1.55,6.56,2.18,10.06,2.2c0.86,0.01,1.99,0,2.77-0.05c1.39-0.11,4.2-0.59,6.23-1.01 c0.07,2.04,0.15,3.95,0.24,4.3c0.21,0.8,0.53,1.49,0.96,2.08c0.43,0.59,1,1.04,1.7,1.36c0.7,0.32,1.57,0.43,2.62,0.37 c0.68-0.05,1.38-0.14,2.1-0.27c0.73-0.13,1.44-0.29,2.15-0.48c0.72-0.18,1.4-0.38,2.07-0.61c0.68-0.23,1.32-0.45,1.94-0.68 c1.17-0.44,2.31-0.93,3.44-1.45c0.03,0.41,0.09,0.81,0.21,1.18c0.17,0.53,0.45,0.98,0.84,1.35c0.39,0.37,0.9,0.65,1.53,0.86 c0.63,0.2,1.4,0.31,2.33,0.31c1.03,0,2.12-0.15,3.27-0.45c1.14-0.3,2.26-0.67,3.36-1.12c1.11-0.45,2.13-0.94,3.07-1.47 c0.2-0.11,0.37-0.21,0.55-0.31c0.02,0.18,0.03,0.37,0.06,0.55c0.08,0.53,0.24,1.01,0.48,1.43c0.24,0.42,0.58,0.75,1.02,1 c0.44,0.25,1.03,0.38,1.76,0.38c0.59,0,1.09-0.11,1.54-0.32c0.44-0.21,0.84-0.61,1.2-1.19l6.97-11.09h0.43 c-0.21,1.14-0.39,2.2-0.53,3.19c-0.14,0.99-0.21,1.91-0.21,2.76c0,2.18,0.32,3.83,0.99,4.96c0.66,1.13,1.48,1.7,2.46,1.7 c0.98,0,1.91-0.11,2.8-0.34c0.89-0.22,1.74-0.5,2.56-0.85c0.8-0.35,1.6-0.74,2.35-1.18c0.05-0.03,0.11-0.07,0.16-0.1 c0.17,0.5,0.44,0.94,0.81,1.29c0.39,0.37,0.9,0.65,1.53,0.86c0.63,0.2,1.41,0.31,2.33,0.31c1.03,0,2.11-0.15,3.26-0.45 c0.68-0.18,1.34-0.39,2-0.62c-0.18,0.6-0.34,1.28-0.5,2.08c-0.17,0.91-0.28,1.9-0.3,2.98c-0.04,1.07,0.1,2.12,0.37,3.12 c0.28,1.01,0.76,1.93,1.46,2.77c0.69,0.84,1.67,1.49,2.95,1.96c1.16,0.42,2.25,0.51,3.28,0.26c1.02-0.25,1.99-0.8,2.9-1.66 c0.91-0.85,1.77-1.99,2.58-3.41c0.82-1.43,1.59-3.09,2.33-5.01c0.09-0.21,0.19-0.6,0.33-1.16c0.08-0.35,0.17-0.74,0.27-1.17 c0.75-0.05,1.53-0.2,2.34-0.44c1.03-0.31,2.05-0.7,3.04-1.16c0.69-0.32,1.33-0.67,1.95-1.03c0.32,0.49,0.7,0.93,1.15,1.31 c0.62,0.52,1.34,0.92,2.15,1.2c0.81,0.28,1.64,0.41,2.49,0.41c0.8,0,1.6-0.11,2.39-0.32c0.8-0.21,1.57-0.49,2.31-0.82 c0.74-0.34,1.42-0.71,2.04-1.12c0.62-0.41,1.14-0.82,1.57-1.22c0.57,1.15,1.24,2.03,2.02,2.63c0.78,0.6,1.76,0.91,2.93,0.91 c0.98,0,1.95-0.19,2.93-0.58c0.98-0.38,1.89-0.85,2.74-1.41c0.85-0.55,1.61-1.14,2.3-1.75c0.18-0.16,0.31-0.29,0.47-0.44l0,0.01 c0,0,0.01-0.02,0.04-0.04c0.44-0.41,3.51-4.03,5.07-5.85c2.68-3.15,7.37-9.25,7.37-9.25L285.41,45.23z M164.66,44.25 c0.31-1.83,0.71-3.53,1.18-5.11c0.48-1.57,1.02-3,1.62-4.29c0.6-1.29,1.2-2.4,1.81-3.33c0.6-0.93,1.2-1.64,1.77-2.16 c0.58-0.52,1.1-0.79,1.56-0.82c0.37-0.02,0.69,0.14,0.94,0.49c0.24,0.36,0.39,0.94,0.45,1.75C174,31,174,31.25,174,31.51 c0.01,0.26,0,0.54-0.02,0.82c-0.06,0.86-0.25,1.77-0.58,2.75c-0.32,0.98-0.74,1.99-1.25,3.04c-0.51,1.05-1.08,2.1-1.73,3.16 c-0.64,1.06-1.32,2.11-2.03,3.13c-0.71,1.02-1.43,2-2.15,2.95c-0.73,0.93-1.43,1.8-2.1,2.6C164.18,47.98,164.35,46.08,164.66,44.25z M235.35,62.89c-0.52,2.21-1.22,4.43-2.09,6.67c-0.29,0.73-0.58,1.32-0.88,1.76c-0.31,0.45-0.61,0.78-0.9,1.02 c-0.29,0.24-0.55,0.39-0.77,0.45c-0.23,0.06-0.41,0.07-0.54,0.02c-0.55-0.2-0.89-0.6-1.03-1.2c-0.14-0.6-0.15-1.27-0.04-2.04 c0.12-0.76,0.32-1.56,0.6-2.39c0.28-0.83,0.55-1.59,0.81-2.27c0.14-0.38,0.35-0.81,0.62-1.27c0.26-0.45,0.55-0.93,0.87-1.4 c0.3-0.48,0.63-0.96,1-1.44c0.35-0.48,0.71-0.94,1.06-1.39c0.82-1.04,1.7-2.1,2.62-3.17C236.32,58.46,235.87,60.68,235.35,62.89z M260.84,55.55c-0.07,0.46-0.22,1.03-0.46,1.71c-0.24,0.68-0.55,1.35-0.94,1.98c-0.39,0.64-0.85,1.19-1.39,1.64 c-0.53,0.45-1.12,0.68-1.78,0.68c-0.4,0-0.74-0.08-1.01-0.24c-0.27-0.16-0.48-0.38-0.64-0.64c-0.16-0.26-0.26-0.56-0.33-0.9 c-0.06-0.33-0.09-0.68-0.09-1.03c0-0.62,0.1-1.29,0.31-2c0.21-0.71,0.49-1.42,0.87-2.12c0.37-0.7,0.82-1.37,1.33-2.01 c0.51-0.64,1.08-1.21,1.69-1.7c0.61-0.5,1.27-0.89,1.95-1.18c0.69-0.29,1.4-0.44,2.13-0.44L260.84,55.55z"></path> <path class="st0" d="M254.73,9.88c0.27,0.97-0.31,1.99-1.3,2.26c-0.97,0.27-1.98-0.31-2.25-1.28c-0.27-0.98,0.31-1.99,1.29-2.26 c0.22-0.06,0.44-0.08,0.65-0.06C253.87,8.6,254.52,9.11,254.73,9.88"></path> <path class="st0" d="M292.86,40.98l2.72-3.54c0.14-0.18,0.09-0.43-0.09-0.55l-3.74-2.44l-4.43-3.05c-0.22-0.15-0.25-0.47-0.07-0.66 c0.57-0.62,1.03-1.16,1.3-1.53c0.41-0.55,1.73-2.78,1.98-3.22c1.71-3.17,3.02-6.64,3.72-10.18c0.71-3.62,0.2-7.51-0.73-11.06 c-0.14-0.54-0.55-2.01-0.63-2.2c-0.07-0.15-0.26-0.24-0.42-0.2c-0.09,0.02-0.17,0.05-0.25,0.08c-0.28,0.09-0.43,0.15-0.71,0.25 c-0.35,0.12-0.7,0.25-1.05,0.38c-0.32,0.12-0.64,0.23-0.95,0.35c-0.19,0.07-0.37,0.14-0.57,0.21c-0.39,0.14-0.79,0.24-1.16,0.41 c-0.26,0.11-0.86,0.38-0.72,0.76c0.08,0.23,0.32,0.35,0.5,0.48c0.22,0.15,0.41,0.34,0.59,0.54c0.27,0.29,0.49,0.62,0.66,0.98 c0.22,0.44,0.35,0.91,0.43,1.4c0.53,3.54-4.29,3.42-10.02,1.64c0.47,1.72,0.72,3.44,0.52,5.1c-1.57,12.8-16.52,17-19.34,6.74 c-0.61-2.21,0.04-4.5,1.52-6.28c1.08-1.33,2.79-2.4,4.21-3.2c2.22-1.26,4.62-2.88,6.59-4.9c-2.11-1-4.12-2.11-5.82-3.26 c-5.86-3.96-11.09-4.51-16.46-1.43c-3.83,2.19-4.98,6.03-5.23,9.31c-0.01,0.16-0.1,0.29-0.25,0.34c-1.45,0.57-4.67,1.84-6.3,2.49 c-0.37,0.15-0.37,0.66,0,0.81l5.21,2.18c0.25,0.1,0.35,0.41,0.2,0.64l-1.96,3.12c-0.19,0.3,0.03,0.68,0.38,0.67l4.1-0.1 c0.17,0,0.33,0.09,0.4,0.25c4.15,9.1,15.96,16.78,30.55,14.05c0.16-0.03,0.32,0.03,0.42,0.16l8.74,11.02 c0.17,0.22,0.51,0.22,0.68,0.01l3.01-3.65c0.16-0.19,0.13-0.47-0.07-0.62l-3.64-2.9l-4.71-3.93l-1.09-0.91 c1.27-0.49,2.56-1.36,3.73-2.31c0.18-0.15,0.45-0.13,0.6,0.04l6.96,7.76C292.37,41.21,292.69,41.2,292.86,40.98z M254.37,13.77 c-1.81,0.5-3.68-0.58-4.19-2.38c-0.49-1.81,0.58-3.69,2.39-4.18c0.41-0.11,0.81-0.15,1.21-0.12c1.38,0.12,2.61,1.08,3,2.49 C257.28,11.38,256.21,13.27,254.37,13.77z"></path> <path class="st1" d="M261.93,15.38c-1.49,1.78-2.13,4.07-1.52,6.28c2.82,10.27,17.77,6.06,19.34-6.74c0.2-1.66-0.05-3.38-0.52-5.1 c-0.69-2.55-1.84-5.11-2.65-7.48c-0.09-0.26-0.45-0.26-0.55,0c-0.73,1.86-1.91,3.5-3.3,4.93c-1.96,2.02-4.36,3.64-6.59,4.9 C264.72,12.98,263.01,14.04,261.93,15.38z"></path> <path class="st2" d="M146.1,25.19c0,0-0.52-1.47-1.23-2.9c-0.67-1.35-0.77-1.52-0.77-1.52s-0.1,0.21-0.78,1.56 c-0.72,1.41-1.22,2.87-1.22,2.87l0,0c-0.05,0.21-0.09,0.42-0.09,0.65c0,1.34,0.93,2.43,2.08,2.43c1.15,0,2.08-1.09,2.08-2.43 C146.18,25.61,146.14,25.4,146.1,25.19L146.1,25.19z"></path> <path class="st0" d="M148.21,15.28c-1.63,1.7-4.18,1.84-5.71,0.05c-0.21-0.25-0.55-0.25-0.76,0c-0.21,0.25-0.18,0.62,0,0.9 c1.02,1.55,1.98,2.21,3.42,2.21c1.08,0,2.55-0.58,3.71-2.16c0.19-0.27,0.28-0.62,0.1-0.89C148.78,15.12,148.44,15.05,148.21,15.28z"></path> <path class="st0" d="M129.59,16.35c-0.05,0.01-0.08,0.03-0.08,0.03c-0.14,0.05-0.28,0.1-0.43,0.16c-1.32,0.57-2.32,1.58-2.94,2.81 c-0.55,0.91-0.98,1.91-1.34,2.8c-1.55,3.84-4.04,8.35-8.06,10.34c3.68,0.57,8.05,2.3,11.74,1.24c7.24-2.07,11.75-7.39,9.13-13.42 C136.16,17.02,132.67,15.33,129.59,16.35z"></path> <path class="st1" d="M157.56,28.78l-2.57-3.95c-0.02-0.14-0.04-0.27-0.07-0.41c1.96-7.76-2.23-15.23-6.66-17.54 c-7.85-4.1-14.7-2.44-20.39,1.78c-8.56,6.32-14.53,18.38-17.5,25.3c-0.76,1.77-1.32,3.2-1.68,4.12c-0.09,0.21-0.17,0.42-0.26,0.62 c-0.05,0.12-0.15,0.29-0.09,0.42c0.03,0.07,0.09,0.11,0.13,0.13c0.08,0.04,0.16,0.07,0.24,0.1c0.09,0.04,0.18,0.07,0.28,0.11 c0.1,0.04,0.2,0.08,0.3,0.12c0.1,0.04,0.2,0.08,0.31,0.12c0.1,0.04,0.19,0.07,0.29,0.11c0.08,0.03,0.17,0.06,0.25,0.1 c0.06,0.02,0.13,0.05,0.19,0.07c0.04,0.01,0.08,0.03,0.14,0.05c0.02,0.01,0.03,0.01,0.05,0.02l1.19,0.33 c0.29,0.08,0.59-0.09,0.66-0.38c0.14-0.56,0.4-1.49,0.8-2.33c0.13-0.29,0.35-0.59,0.61-0.88c0.11-0.06,0.22-0.12,0.33-0.18 c0.61-0.11,1.23-0.17,1.87-0.15c4.18,0.1,8.14,1.07,12.41,1.64c0.21,0.03,0.39,0.18,0.44,0.39l2.05,7.55h4.81l-3.06-7.55 c0.58,0.03,1.17,0.06,1.77,0.05l3.3-0.19c0.05,0,0.1-0.01,0.15-0.01c0.56-0.06,1.1-0.14,1.67-0.23c3.67-0.62,7.15-2.36,8.72-3.66 c1.98-1.64,3.49-3.38,4.59-5.16l4.21,0.36C157.51,29.64,157.8,29.15,157.56,28.78z M128.47,33.73c-3.23,0.93-6.99-0.29-10.35-0.98 c-0.47-0.1-0.57-0.7-0.18-0.96c3.32-2.23,5.46-6.2,6.85-9.64c0.36-0.89,0.8-1.89,1.34-2.8c0.62-1.23,1.62-2.24,2.94-2.81 c0.15-0.06,0.29-0.11,0.43-0.16c0,0,0.03-0.03,0.08-0.03c3.08-1.01,6.58,0.67,8.01,3.96C140.21,26.34,135.71,31.66,128.47,33.73z M144.1,28.27c-1.15,0-2.08-1.09-2.08-2.43c0-0.23,0.04-0.44,0.09-0.65l0,0c0,0,0.5-1.45,1.22-2.87c0.68-1.35,0.78-1.56,0.78-1.56 s0.1,0.17,0.77,1.52c0.71,1.44,1.23,2.9,1.23,2.9l-0.01,0c0.05,0.21,0.09,0.42,0.09,0.65C146.18,27.18,145.25,28.27,144.1,28.27z M148.87,16.29c-1.16,1.58-2.63,2.16-3.71,2.16c-1.44,0-2.4-0.67-3.42-2.21c-0.18-0.28-0.21-0.65,0-0.9c0.21-0.25,0.55-0.25,0.76,0 c1.54,1.78,4.09,1.65,5.71-0.05c0.22-0.23,0.57-0.16,0.75,0.12C149.15,15.68,149.06,16.03,148.87,16.29z"></path> </svg> 